<svg width="80" height="80" viewBox="0 0 80 80" fill="none" xmlns="http://www.w3.org/2000/svg">
<path d="M58.9337 4H29.7334C24.38 4 20.0487 8.275 20.0487 13.5L20 70.5C20 75.725 24.38 80 29.7334 80H68.6671C74.0205 80 78.2666 75.725 78.2666 70.5V23C78.2666 17.775 74.0205 13.5 68.6671 13.5L58.9337 4Z" fill="#394582"/>
<path d="M26.3125 3.57628e-06L8 0C3.6 0 0.04 4.5 0.04 10L0 70C0 75.5 3.6 80 8 80H72C76.4 80 80 75.5 80 70V22.0703C80 16.5703 76.4 12.0703 72 12.0703L34.3125 12.0703L26.3125 3.57628e-06Z" fill="url(#paint0_linear_120_305)"/>
<defs>
<linearGradient id="paint0_linear_120_305" x1="54.7188" y1="-0.0781262" x2="-1.36257" y2="89.5467" gradientUnits="userSpaceOnUse">
<stop stop-color="#7691C7"/>
<stop offset="1" stop-color="#224B99"/>
</linearGradient>
</defs>
</svg>
