<svg width="80" height="64" viewBox="0 0 80 64" fill="none" xmlns="http://www.w3.org/2000/svg">
<path d="M52.54 2.1875H30.4787C26.4342 2.1875 23.1618 5.54141 23.1618 9.64062L23.125 54.3594C23.125 58.4586 26.4342 61.8125 30.4787 61.8125H67.1463C71.1908 61.8125 74.5 58.4586 74.5 54.3594V17.0938C74.5 12.9945 71.1908 9.64062 67.1463 9.64062H59.8937L52.54 2.1875Z" fill="#394582"/>
<path d="M26.3125 2.86102e-06L8 0C3.6 0 0.04 3.6 0.04 8L0 56C0 60.4 3.6 64 8 64H72C76.4 64 80 60.4 80 56V17.6562C80 13.2563 76.4 9.65625 72 9.65625L34.3125 9.65625L26.3125 2.86102e-06Z" fill="url(#paint0_linear_12_302)"/>
<defs>
<linearGradient id="paint0_linear_12_302" x1="54.7188" y1="-0.0625009" x2="14.7813" y2="79.7187" gradientUnits="userSpaceOnUse">
<stop stop-color="#7691C7"/>
<stop offset="1" stop-color="#224B99"/>
</linearGradient>
</defs>
</svg>
