<svg width="151" height="137" fill="none" xmlns="http://www.w3.org/2000/svg">
    <g filter="url(#a)">
        <path
            d="M16.8 134c-3.52 0-7.095-.869-9.6-4-2.509-3.136-3.2-7.6-3.2-12V22c0-4.4 1.254-8.165 3.763-11.296C10.268 7.568 13.28 6 16.8 6h38.4L68 22h51.2c3.52 0 6.534 1.568 9.043 4.704C130.748 29.834 132 33.6 132 38v80c0 4.4-1.252 8.168-3.757 11.304-2.509 3.131-5.523 4.696-9.043 4.696H16.8z"
            fill="url(#b)" />
        <path
            d="M17.73 134c-3.504 0-6.932-.72-8.956-3.312-2.027-2.597-2.047-6.294-1.388-9.938l14.373-79.5c.658-3.644 2.47-6.762 5.436-9.355C30.157 29.3 33.39 28 36.893 28h38.219l10.344 13.25h50.957c3.504 0 6.269 1.298 8.297 3.895 2.024 2.593 2.706 5.711 2.047 9.355l-11.977 66.25c-.659 3.644-2.469 6.764-5.431 9.361-2.966 2.593-6.201 3.889-9.704 3.889H17.73z"
            fill="url(#c)" />
    </g>
    <g filter="url(#d)" fill="#EAA902">
        <path
            d="M33.5 111.767c-.676 0-.95-.352-.82-1.057l5.306-28.853a71.3 71.3 0 0 0 .712-4.715c.236-1.571.407-3.061.51-4.47.035-.758.443-1.138 1.223-1.138h7.718c.312 0 .536.054.672.163.136.108.2.325.192.65.027.704.007 1.517-.058 2.438a21.834 21.834 0 0 1-.167 2.601c2.168-1.896 4.386-3.495 6.652-4.795 2.276-1.355 4.766-2.032 7.469-2.032 2.755 0 4.781.569 6.08 1.707 1.297 1.138 2.075 2.844 2.332 5.12 2.23-1.95 4.504-3.576 6.823-4.876 2.37-1.3 4.88-1.951 7.531-1.951 3.639 0 6.142 1.084 7.511 3.251 1.42 2.167 1.712 5.527.875 10.078L89.13 110.71c-.13.705-.532 1.057-1.208 1.057h-8.81c-.676 0-.949-.352-.82-1.057l4.514-24.546c.36-1.95.29-3.413-.206-4.389-.496-.975-1.498-1.463-3.006-1.463-1.3 0-2.642.38-4.03 1.138-1.324.704-2.792 1.761-4.403 3.17l-4.797 26.09c-.13.705-.533 1.057-1.208 1.057h-8.81c-.676 0-.95-.352-.82-1.057l4.514-24.546c.359-1.95.29-3.413-.207-4.389-.496-.975-1.524-1.463-3.083-1.463-1.3 0-2.617.38-3.952 1.138-1.325.704-2.819 1.761-4.481 3.17l-4.798 26.09c-.13.705-.532 1.057-1.208 1.057H33.5zM104.196 89.923c-.284 0-.447-.106-.49-.317a.914.914 0 0 1 .19-.699l12.196-19.62h-6.03l-.42 2.285c-.101.55-.416.826-.944.826h-4.325c-.528 0-.741-.275-.64-.826l1.425-7.747c.101-.55.416-.825.944-.825h20.283c.528 0 .742.275.64.825l-.035.191c-.039.212-.11.381-.215.508a7.072 7.072 0 0 0-.203.444l-15.303 24.257c-.249.466-.636.698-1.164.698h-5.909zM96.718 93.162h27.836l-.583 3.175H96.134l.584-3.175z" />
    </g>
    <defs>
        <linearGradient id="b" x1="75.5" y1="6" x2="51.584" y2="135.054" gradientUnits="userSpaceOnUse">
            <stop stop-color="#FFB800" />
            <stop offset="1" stop-color="#F2AF00" />
        </linearGradient>
        <linearGradient id="c" x1="77" y1="28" x2="77.104" y2="140.767" gradientUnits="userSpaceOnUse">
            <stop stop-color="#FFCD36" />
            <stop offset="1" stop-color="#FFC105" />
            <stop offset="1" stop-color="#FFCD36" />
        </linearGradient>
        <filter id="a" x="0" y="0" width="151" height="136" filterUnits="userSpaceOnUse"
            color-interpolation-filters="sRGB">
            <feFlood flood-opacity="0" result="BackgroundImageFix" />
            <feColorMatrix in="SourceAlpha" values="0 0 0 0 0 0 0 0 0 0 0 0 0 0 0 0 0 0 127 0" result="hardAlpha" />
            <feOffset dy="-2" />
            <feGaussianBlur stdDeviation="2" />
            <feComposite in2="hardAlpha" operator="out" />
            <feColorMatrix values="0 0 0 0 0 0 0 0 0 0 0 0 0 0 0 0 0 0 0.25 0" />
            <feBlend in2="BackgroundImageFix" result="effect1_dropShadow_128_655" />
            <feBlend in="SourceGraphic" in2="effect1_dropShadow_128_655" result="shape" />
        </filter>
        <filter id="d" x="32.649" y="63" width="94.401" height="50.767" filterUnits="userSpaceOnUse"
            color-interpolation-filters="sRGB">
            <feFlood flood-opacity="0" result="BackgroundImageFix" />
            <feBlend in="SourceGraphic" in2="BackgroundImageFix" result="shape" />
            <feColorMatrix in="SourceAlpha" values="0 0 0 0 0 0 0 0 0 0 0 0 0 0 0 0 0 0 127 0" result="hardAlpha" />
            <feOffset dy="2" />
            <feGaussianBlur stdDeviation="2" />
            <feComposite in2="hardAlpha" operator="arithmetic" k2="-1" k3="1" />
            <feColorMatrix values="0 0 0 0 0 0 0 0 0 0 0 0 0 0 0 0 0 0 0.25 0" />
            <feBlend in2="shape" result="effect1_innerShadow_128_655" />
        </filter>
    </defs>
</svg>
